<svg xmlns="http://www.w3.org/2000/svg" width="240.062" height="32" viewBox="0 0 240.062 32">
  <metadata><?xpacket begin="﻿" id="W5M0MpCehiHzreSzNTczkc9d"?>
<x:xmpmeta xmlns:x="adobe:ns:meta/" x:xmptk="Adobe XMP Core 5.6-c140 79.160451, 2017/05/06-01:08:21        ">
   <rdf:RDF xmlns:rdf="http://www.w3.org/1999/02/22-rdf-syntax-ns#">
      <rdf:Description rdf:about=""/>
   </rdf:RDF>
</x:xmpmeta>
                                                                                                    
                                                                                                    
                                                                                                    
                                                                                                    
                                                                                                    
                                                                                                    
                                                                                                    
                                                                                                    
                                                                                                    
                                                                                                    
                                                                                                    
                                                                                                    
                                                                                                    
                                                                                                    
                                                                                                    
                                                                                                    
                                                                                                    
                                                                                                    
                                                                                                    
                                                                                                    
                           
<?xpacket end="w"?></metadata>
<defs>
    <style>
      .cls-1 {
        fill: #fff;
        fill-rule: evenodd;
      }
    </style>
  </defs>
  <path id="Polygon_2_copy_2" data-name="Polygon 2 copy 2" class="cls-1" d="M487.913,39.52V50.484H480.7V39.431l-12.062-19.9H476.3l8.323,13.75,8.323-13.75h7.077ZM458.76,38L448.03,50.65l-10.812-12.5V50.484h-6.765V31h9.737l7.826,9.214L455.8,31h9.716l0.056,19.485h-6.765Zm6.721-18.468L465.509,29h-8.021ZM448,20l6.041,9H441.959Zm-17.547-.464L438.491,29h-8.038V19.536Zm-29.866,0h23.546v5.747h-16.38V32h14.466v5.571H407.753v7.162h16.958v5.748H400.587V19.536ZM386.946,48.561a20.009,20.009,0,0,1-8.969,1.924H363.823V19.536h14.154a20.009,20.009,0,0,1,8.969,1.923A14.474,14.474,0,0,1,393,26.875a15.157,15.157,0,0,1,2.159,8.135A15.157,15.157,0,0,1,393,43.145,14.47,14.47,0,0,1,386.946,48.561ZM385.076,28a10.51,10.51,0,0,0-7.455-2.586h-6.587V44.6h6.587a10.51,10.51,0,0,0,7.455-2.587,9.106,9.106,0,0,0,2.782-7.008A9.106,9.106,0,0,0,385.076,28Zm-34.828,15.85H335.783l-2.76,6.632h-7.388l13.886-30.948h7.122l13.931,30.948h-7.566Zm-7.21-17.287L338.1,38.414h9.881ZM306.876,43.653a10.455,10.455,0,0,0,5.163,1.26,9.929,9.929,0,0,0,7.833-3.67l4.629,4.244a14.411,14.411,0,0,1-5.519,4.112,18.426,18.426,0,0,1-7.344,1.415,17.987,17.987,0,0,1-8.612-2.056,15.408,15.408,0,0,1-6.054-5.7,15.639,15.639,0,0,1-2.2-8.245,15.641,15.641,0,0,1,2.2-8.245,15.4,15.4,0,0,1,6.054-5.7A18.083,18.083,0,0,1,311.683,19a18.272,18.272,0,0,1,7.322,1.415,14.66,14.66,0,0,1,5.5,4.068l-4.629,4.244a9.982,9.982,0,0,0-7.833-3.625,10.454,10.454,0,0,0-5.163,1.26,8.985,8.985,0,0,0-3.539,3.515,10.286,10.286,0,0,0-1.268,5.129,10.284,10.284,0,0,0,1.268,5.129A8.99,8.99,0,0,0,306.876,43.653Zm-19.519,6.831L284.6,43.852H270.132l-2.76,6.632h-7.388l13.887-30.948h7.121l13.932,30.948h-7.567Zm-9.97-23.919-4.941,11.849h9.882Z" transform="translate(-259.969 -19)"/>
</svg>
